# Blender v3.0.0 OBJ File: 'untitled4.blend'
# www.blender.org
mtllib runway.mtl
o rua_Cubo.004
v 74.271683 0.979900 243.965134
v 43.379566 1.013783 243.592880
v 43.381241 2.541602 243.592880
v 74.273361 2.507720 243.965134
v 37.250336 1.020676 -418.996155
v 37.252014 2.548496 -418.996155
v 68.142448 0.986794 -418.623901
v 68.144127 2.514613 -418.623901
vt 2.338983 0.030904
vt -1.338983 0.030904
vt -1.338983 0.969096
vt 2.338983 0.969096
vt 2.338983 0.030904
vt -1.338983 0.030904
vt -1.338983 0.969096
vt 2.338983 0.969096
vt 2.338983 0.030904
vt -1.338983 0.030904
vt -1.338983 0.969096
vt 2.338983 0.969096
vt 2.338983 0.030904
vt -1.338983 0.030904
vt -1.338983 0.969096
vt 2.338983 0.969096
vt -1.338983 0.030904
vt -1.338983 0.969096
vt 2.338983 0.030904
vt 2.338983 0.969096
vn -0.0120 0.0000 0.9999
vn -1.0000 0.0011 0.0093
vn 0.0120 -0.0000 -0.9999
vn 1.0000 -0.0011 -0.0093
vn -0.0011 -1.0000 -0.0000
vn 0.0011 1.0000 0.0000
usemtl Materiais.009
s 1
f 1/1/1 4/2/1 3/3/1 2/4/1
f 2/5/2 3/6/2 6/7/2 5/8/2
f 5/9/3 6/10/3 8/11/3 7/12/3
f 7/13/4 8/14/4 4/15/4 1/16/4
f 2/5/5 5/17/5 7/18/5 1/16/5
f 6/19/6 3/6/6 4/15/6 8/20/6
o rua_Cubo.006
v 45.315971 0.848866 244.684189
v 10.178703 0.887403 244.260788
v 10.180378 2.415223 244.260788
v 45.317650 2.376685 244.684189
v 4.049469 0.894297 -418.328247
v 4.051144 2.422116 -418.328186
v 39.186741 0.855759 -417.904785
v 39.188416 2.383579 -417.904785
vt 2.338983 0.030904
vt -1.338983 0.030904
vt -1.338983 0.969096
vt 2.338983 0.969096
vt 2.338983 0.030904
vt -1.338983 0.030904
vt -1.338983 0.969096
vt 2.338983 0.969096
vt 2.338983 0.030904
vt -1.338983 0.030904
vt -1.338983 0.969096
vt 2.338983 0.969096
vt 2.338983 0.030904
vt -1.338983 0.030904
vt -1.338983 0.969096
vt 2.338983 0.969096
vt -1.338983 0.030904
vt -1.338983 0.969096
vt 2.338983 0.030904
vt 2.338983 0.969096
vn -0.0120 0.0000 0.9999
vn -1.0000 0.0011 0.0093
vn 0.0121 0.0000 -0.9999
vn 1.0000 -0.0011 -0.0093
vn -0.0011 -1.0000 -0.0000
vn 0.0011 1.0000 0.0000
usemtl Materiais.010
s 1
f 9/21/7 12/22/7 11/23/7 10/24/7
f 10/25/8 11/26/8 14/27/8 13/28/8
f 13/29/9 14/30/9 16/31/9 15/32/9
f 15/33/10 16/34/10 12/35/10 9/36/10
f 10/25/11 13/37/11 15/38/11 9/36/11
f 14/39/12 11/26/12 12/35/12 16/40/12
o rua_Cubo.007
v 107.913162 0.735320 244.484695
v 73.341827 0.773237 244.068130
v 73.343498 2.301057 244.068130
v 107.914841 2.263140 244.484695
v 67.212593 0.780131 -418.520874
v 67.214272 2.307950 -418.520874
v 101.783928 0.742214 -418.104309
v 101.785599 2.270033 -418.104309
vt 2.338983 0.030904
vt -1.338983 0.030904
vt -1.338983 0.969096
vt 2.338983 0.969096
vt 2.338983 0.030904
vt -1.338983 0.030904
vt -1.338983 0.969096
vt 2.338983 0.969096
vt 2.338983 0.030904
vt -1.338983 0.030904
vt -1.338983 0.969096
vt 2.338983 0.969096
vt 2.338983 0.030904
vt -1.338983 0.030904
vt -1.338983 0.969096
vt 2.338983 0.969096
vt -1.338983 0.030904
vt -1.338983 0.969096
vt 2.338983 0.030904
vt 2.338983 0.969096
vn -0.0120 0.0000 0.9999
vn -1.0000 0.0011 0.0093
vn 0.0120 -0.0000 -0.9999
vn 1.0000 -0.0011 -0.0093
vn -0.0011 -1.0000 -0.0000
vn 0.0011 1.0000 0.0000
usemtl Materiais.011
s 1
f 17/41/13 20/42/13 19/43/13 18/44/13
f 18/45/14 19/46/14 22/47/14 21/48/14
f 21/49/15 22/50/15 24/51/15 23/52/15
f 23/53/16 24/54/16 20/55/16 17/56/16
f 18/45/17 21/57/17 23/58/17 17/56/17
f 22/59/18 19/46/18 20/55/18 24/60/18
