# 3ds Max Wavefront OBJ Exporter v0.97b - (c)2007 guruware
# File Created: 09.09.2015 07:06:02

mtllib 3d-model.mtl

#
# object Layer0_001
#

v  -30.1277 927.2047 -55.9872
v  -91.4991 927.2047 -331.8170
v  -102.2743 927.2047 61.7364
v  19.2207 927.2047 -3.8607
v  291.2791 927.2047 72.5114
v  96.3881 927.2047 -1.7479
v  173.5554 927.2047 0.3648
v  225.6820 927.2047 -48.9835
v  227.7948 927.2047 -126.1509
v  229.9075 927.2047 -203.3183
v  302.0541 927.2047 -321.0419
v  180.5592 927.2047 -255.4448
v  103.3918 927.2047 -257.5576
v  26.2244 927.2047 -259.6703
v  -25.9021 927.2047 -210.3220
v  -28.0149 927.2047 -133.1546
v  4.1953 730.3543 -230.7348
v  -1.1921 730.3543 -33.9582
v  -91.4991 730.3543 -331.8170
v  302.0541 730.3543 -321.0419
v  200.9720 730.3543 -225.3473
v  291.2791 730.3543 72.5114
v  195.5845 730.3543 -28.5707
v  -102.2743 730.3543 61.7364
v  -64.8112 1084.6851 -227.7010
v  -69.9293 1084.6851 -40.7632
v  1.8417 1084.6851 35.0483
v  11.0004 1084.6851 -299.4720
v  188.7794 1084.6851 40.1665
v  197.9382 1084.6851 -294.3538
v  226.6852 1084.6851 4.2810
v  269.7091 1084.6851 -218.5423
v  264.5911 1084.6851 -31.6045
v  -597.6575 120.1181 -190.2303
v  -597.6575 120.1181 331.8170
v  597.6575 120.1181 331.8170
v  -1.1921 120.1181 -33.9582
v  195.5845 120.1181 -28.5707
v  200.0903 120.1181 -193.1437
v  200.9720 120.1181 -225.3473
v  311.8307 120.1181 -185.3484
v  597.6575 120.1181 -185.3484
v  311.8307 120.1181 -237.5138
v  200.0903 120.1181 -225.3715
v  4.1953 120.1181 -230.7348
v  -174.9804 120.1181 -237.5138
v  -174.9804 120.1181 -190.2303
v  -174.9804 0.0000 -190.2303
v  -174.9804 0.0000 -237.5138
v  311.8307 0.0000 -237.5138
v  311.8307 0.0000 -185.3484
v  597.6575 0.0000 331.8170
v  -597.6575 0.0000 331.8170
v  -597.6575 0.0000 -190.2303
v  597.6575 0.0000 -185.3484
# 55 vertices

vn 0.0000 1.0000 -0.0000
vn 0.0000 -1.0000 -0.0000
vn -0.9996 0.0000 -0.0274
vn -0.9698 -0.2425 -0.0266
vn 0.0266 -0.2425 -0.9698
vn -0.6670 -0.2425 -0.7045
vn -0.0274 0.0000 0.9996
vn 0.9996 0.0000 0.0274
vn 0.0274 0.0000 -0.9996
vn 0.7045 -0.2425 -0.6670
vn 0.6670 -0.2425 0.7045
vn 0.9698 -0.2425 0.0266
vn -0.0266 -0.2425 0.9698
vn -0.7045 -0.2425 0.6670
vn -1.0000 0.0000 -0.0000
vn 1.0000 0.0000 -0.0000
vn 0.0000 0.0000 1.0000
vn 0.0000 0.0000 -1.0000
# 18 vertex normals

vt 0.5126 0.4942 0.0000
vt 0.5014 0.5618 0.0000
vt 0.5013 0.4648 0.0000
vt 0.5209 0.4817 0.0000
vt 0.5659 0.4645 0.0000
vt 0.5336 0.4816 0.0000
vt 0.5463 0.4816 0.0000
vt 0.5547 0.4941 0.0000
vt 0.5547 0.5131 0.0000
vt 0.5547 0.5321 0.0000
vt 0.5661 0.5615 0.0000
vt 0.5464 0.5446 0.0000
vt 0.5337 0.5447 0.0000
vt 0.5210 0.5447 0.0000
vt 0.5127 0.5323 0.0000
vt 0.5126 0.5132 0.0000
vt 0.5175 0.5375 0.0000
vt 0.5175 0.4890 0.0000
vt 0.5499 0.5374 0.0000
vt 0.5498 0.4888 0.0000
vt 0.5062 0.5363 0.0000
vt 0.5061 0.4902 0.0000
vt 0.5182 0.4720 0.0000
vt 0.5184 0.5544 0.0000
vt 0.5490 0.4719 0.0000
vt 0.5491 0.5543 0.0000
vt 0.5550 0.4809 0.0000
vt 0.5612 0.5361 0.0000
vt 0.5611 0.4900 0.0000
vt 0.4189 0.5238 0.0000
vt 0.4210 0.3952 0.0000
vt 0.6173 0.4026 0.0000
vt 0.5499 0.5294 0.0000
vt 0.5682 0.5282 0.0000
vt 0.6152 0.5299 0.0000
vt 0.5680 0.5410 0.0000
vt 0.4881 0.5380 0.0000
vt 0.4883 0.5264 0.0000
vt 0.4932 0.4383 0.0000
vt 0.4932 0.5307 0.0000
vt 0.3698 0.5307 0.0000
vt 0.3698 0.4383 0.0000
vt 0.4624 0.1518 0.0000
vt 0.4624 0.4383 0.0000
vt 0.4006 0.4383 0.0000
vt 0.4006 0.1518 0.0000
vt 0.4557 0.5422 0.0000
vt 0.4608 0.6184 0.0000
vt 0.4022 0.6184 0.0000
vt 0.4315 0.5422 0.0000
vt 0.4073 0.5422 0.0000
vt 0.4201 0.5424 0.0000
vt 0.4426 0.5424 0.0000
vt 0.4477 0.6186 0.0000
vt 0.4150 0.6186 0.0000
vt 0.4523 0.1518 0.0000
vt 0.4313 0.6186 0.0000
vt 4.8368 0.3553 0.0000
vt 4.8280 0.2475 0.0000
vt 5.0337 0.1746 0.0000
vt 4.8456 0.4632 0.0000
vt 5.0628 0.5322 0.0000
vt 5.3552 0.1716 0.0000
vt 5.3844 0.5292 0.0000
vt 5.6767 0.1687 0.0000
vt 5.7059 0.5263 0.0000
vt 5.8939 0.2377 0.0000
vt 5.9115 0.4534 0.0000
vt 5.9027 0.3455 0.0000
vt -4.2245 0.4351 0.0000
vt -4.2245 0.5012 0.0000
vt -6.2529 0.5012 0.0000
vt -6.2529 0.4283 0.0000
vt -7.4438 -0.2946 0.0000
vt -2.4633 -0.2946 0.0000
vt -2.4633 0.4351 0.0000
vt -7.4438 0.4283 0.0000
vt 5.7909 0.4842 0.0000
vt 5.7873 0.4842 0.0000
vt 5.7873 0.4392 0.0000
vt 0.8782 0.0000 0.0000
vt 0.8782 0.1679 0.0000
vt -1.2970 0.1679 0.0000
vt -1.2970 0.0000 0.0000
vt -0.8782 0.1679 0.0000
vt -0.8782 0.0000 0.0000
vt 1.2766 0.0000 0.0000
vt 1.2766 0.1679 0.0000
vt 2.4633 0.0000 0.0000
vt 7.4438 0.0000 0.0000
vt 7.4438 0.1679 0.0000
vt 2.4633 0.1679 0.0000
vt 4.9710 0.4917 0.0000
vt 4.9486 0.2167 0.0000
vt 5.7685 0.2091 0.0000
vt -6.2529 0.0000 0.0000
vt -4.2245 0.0000 0.0000
vt -4.2245 0.1679 0.0000
vt -6.2529 0.1679 0.0000
vt 1.4940 0.0000 0.0000
vt 1.4940 0.1679 0.0000
vt -7.4438 0.0000 0.0000
vt -7.4438 0.1679 0.0000
vt -2.4633 0.0000 0.0000
vt -2.4633 0.1679 0.0000
vt -1.4940 0.1679 0.0000
vt -1.4940 0.0000 0.0000
# 107 texture coords

g Layer0_001
usemtl wire_028089177
s off
f 1/1/1 2/2/1 3/3/1 4/4/1 
f 4/4/1 3/3/1 5/5/1 6/6/1 
f 7/7/1 6/6/1 5/5/1 8/8/1 
f 9/9/1 8/8/1 5/5/1 10/10/1 
f 10/10/1 5/5/1 11/11/1 12/12/1 
f 13/13/1 12/12/1 11/11/1 14/14/1 
f 14/14/1 11/11/1 2/2/1 15/15/1 
f 15/15/1 2/2/1 1/1/1 16/16/1 
f 17/17/2 18/18/2 19/2/2 20/11/2 
f 21/19/2 17/17/2 20/11/2 22/5/2 
f 23/20/2 21/19/2 22/5/2 18/18/2 
f 18/18/2 22/5/2 24/3/2 19/2/2 
f 25/21/1 26/22/1 27/23/1 28/24/1 
f 28/24/1 27/23/1 29/25/1 30/26/1 
f 30/26/1 29/25/1 31/27/1 32/28/1 
f 32/28/1 31/27/1 33/29/1 
f 34/30/1 35/31/1 36/32/1 37/18/1 
f 38/20/1 37/18/1 36/32/1 39/33/1 
f 40/19/1 39/33/1 36/32/1 41/34/1 
f 41/34/1 36/32/1 42/35/1 
f 40/19/1 41/34/1 43/36/1 44/19/1 
f 45/17/1 44/19/1 43/36/1 46/37/1 
f 37/18/1 45/17/1 46/37/1 47/38/1 
f 34/30/1 37/18/1 47/38/1 
f 24/39/3 3/40/3 2/41/3 19/42/3 
f 37/43/3 18/44/3 17/45/3 45/46/3 
f 1/47/4 26/48/4 25/49/4 16/50/4 
f 16/50/4 25/49/4 15/51/4 
f 13/50/5 14/47/5 28/48/5 12/51/5 
f 12/51/5 28/48/5 30/49/5 
f 14/52/6 15/53/6 25/54/6 28/55/6 
f 24/42/7 22/39/7 5/40/7 3/41/7 
f 5/41/8 22/42/8 20/39/8 11/40/8 
f 20/42/9 19/39/9 2/40/9 11/41/9 
f 37/46/7 38/43/7 23/44/7 18/45/7 
f 23/45/8 38/46/8 39/56/8 21/44/8 
f 21/44/8 39/56/8 40/43/8 
f 44/46/9 45/43/9 17/44/9 40/46/9 
f 40/46/9 17/44/9 21/45/9 
f 32/55/10 10/52/10 12/53/10 30/54/10 
f 7/52/11 8/53/11 33/54/11 29/55/11 
f 29/55/11 33/54/11 31/57/11 
f 32/48/12 33/49/12 8/51/12 9/50/12 
f 32/48/12 9/50/12 10/47/12 
f 6/50/13 7/47/13 29/48/13 4/51/13 
f 4/51/13 29/48/13 27/49/13 
f 4/53/14 27/54/14 26/55/14 1/52/14 
f 16/58/1 1/59/1 4/60/1 15/61/1 
f 14/62/1 15/61/1 4/60/1 6/63/1 
f 13/64/1 14/62/1 6/63/1 7/65/1 
f 12/66/1 13/64/1 7/65/1 8/67/1 
f 10/68/1 12/66/1 8/67/1 9/69/1 
f 48/70/2 49/71/2 50/72/2 51/73/2 
f 48/70/2 51/73/2 52/74/2 53/75/2 
f 48/70/2 53/75/2 54/76/2 
f 52/74/2 51/73/2 55/77/2 
f 40/78/1 44/79/1 39/80/1 
f 53/81/15 35/82/15 34/83/15 54/84/15 
f 36/85/16 52/86/16 55/87/16 42/88/16 
f 53/89/17 52/90/17 36/91/17 35/92/17 
f 45/93/1 37/94/1 38/95/1 44/79/1 
f 44/79/1 38/95/1 39/80/1 
f 50/96/18 49/97/18 46/98/18 43/99/18 
f 41/88/16 51/87/16 50/100/16 43/101/16 
f 55/102/18 51/96/18 41/99/18 42/103/18 
f 48/97/18 54/104/18 34/105/18 47/98/18 
f 48/84/15 47/83/15 46/106/15 49/107/15 
# 53 polygons - 14 triangles

