# Blender v3.0.0 OBJ File: 'untitled4.blend'
# www.blender.org
mtllib tower.mtl
o 3d-model.003
v 214.950500 27.610476 -7.519634
v 225.847275 27.610477 -10.289728
v 210.182373 27.610476 -10.248444
v 212.936279 27.610476 -5.494766
v 210.223663 27.610476 5.416466
v 212.944382 27.610476 -2.423212
v 212.952469 27.610476 0.648337
v 214.977341 27.610476 2.662557
v 218.048889 27.610476 2.654462
v 221.120453 27.610477 2.646363
v 225.888565 27.610477 5.375174
v 223.134659 27.610477 0.621499
v 223.126572 27.610477 -2.450055
v 223.118469 27.610477 -5.521608
v 221.093597 27.610477 -7.535823
v 218.022049 27.610476 -7.527729
v 221.941376 21.561232 -6.363186
v 214.108917 21.561230 -6.342536
v 225.847290 21.561232 -10.289729
v 225.888565 21.561232 5.375174
v 221.962021 21.561232 1.469269
v 210.223663 21.561230 5.416466
v 214.129578 21.561230 1.489915
v 210.182373 21.561230 -10.248444
v 221.738342 32.449875 -9.104028
v 214.297501 32.449875 -9.084413
v 211.368088 32.449875 -6.139498
v 224.683258 32.449879 -6.174599
v 211.387695 32.449875 1.301328
v 224.702866 32.449879 1.266231
v 212.860153 32.449875 2.766042
v 221.773438 32.449875 4.211143
v 214.332611 32.449875 4.230762
v 219.611969 2.808573 -30.251171
v 198.849579 2.808570 -29.627947
v 200.276566 2.808570 17.911028
v 214.108932 2.808573 -6.342536
v 214.129578 2.808573 1.489915
v 220.680206 2.808573 1.472648
v 221.962021 2.808574 1.469269
v 220.503571 2.808573 5.925991
v 220.844788 2.808573 17.293633
v 222.578247 2.808574 5.863715
v 221.961929 2.808574 1.434174
v 221.941376 2.808574 -6.363186
v 221.997086 2.808574 -13.497292
v 220.116562 2.808573 -13.440844
v 220.116562 -0.882675 -13.440844
v 221.997086 -0.882675 -13.497292
v 222.578247 -0.882675 5.863715
v 220.503571 -0.882675 5.925991
v 200.276566 -0.882679 17.911028
v 198.849594 -0.882679 -29.627947
v 219.611969 -0.882675 -30.251171
v 220.844788 -0.882675 17.293633
vt 0.512600 0.494200
vt 0.501400 0.561800
vt 0.501300 0.464800
vt 0.520900 0.481700
vt 0.565900 0.464500
vt 0.533600 0.481600
vt 0.546300 0.481600
vt 0.554700 0.494100
vt 0.554700 0.513100
vt 0.554700 0.532100
vt 0.566100 0.561500
vt 0.546400 0.544600
vt 0.533700 0.544700
vt 0.521000 0.544700
vt 0.512700 0.532300
vt 0.512600 0.513200
vt 0.517500 0.537500
vt 0.517500 0.489000
vt 0.501400 0.561800
vt 0.566100 0.561500
vt 0.549900 0.537400
vt 0.565900 0.464500
vt 0.549800 0.488800
vt 0.501300 0.464800
vt 0.506200 0.536300
vt 0.506100 0.490200
vt 0.518200 0.472000
vt 0.518400 0.554400
vt 0.549000 0.471900
vt 0.549100 0.554300
vt 0.555000 0.480900
vt 0.561200 0.536100
vt 0.561100 0.490000
vt 0.418900 0.523800
vt 0.421000 0.395200
vt 0.617300 0.402600
vt 0.517500 0.489000
vt 0.549800 0.488800
vt 0.549900 0.529400
vt 0.549900 0.537400
vt 0.568200 0.528200
vt 0.615200 0.529900
vt 0.568000 0.541000
vt 0.549900 0.537400
vt 0.517500 0.537500
vt 0.488100 0.538000
vt 0.488300 0.526400
vt 0.493200 0.438300
vt 0.493200 0.530700
vt 0.369800 0.530700
vt 0.369800 0.438300
vt 0.462400 0.151800
vt 0.462400 0.438300
vt 0.400600 0.438300
vt 0.400600 0.151800
vt 0.455700 0.542200
vt 0.460800 0.618400
vt 0.402200 0.618400
vt 0.431500 0.542200
vt 0.407300 0.542200
vt 0.431500 0.542200
vt 0.455700 0.542200
vt 0.460800 0.618400
vt 0.407300 0.542200
vt 0.402200 0.618400
vt 0.420100 0.542400
vt 0.442600 0.542400
vt 0.447700 0.618600
vt 0.415000 0.618600
vt 0.369800 0.438300
vt 0.493200 0.438300
vt 0.493200 0.530700
vt 0.369800 0.530700
vt 0.369800 0.530700
vt 0.369800 0.438300
vt 0.493200 0.438300
vt 0.493200 0.530700
vt 0.369800 0.438300
vt 0.493200 0.438300
vt 0.493200 0.530700
vt 0.369800 0.530700
vt 0.400600 0.151800
vt 0.462400 0.151800
vt 0.462400 0.438300
vt 0.400600 0.438300
vt 0.400600 0.438300
vt 0.400600 0.151800
vt 0.452300 0.151800
vt 0.462400 0.438300
vt 0.462400 0.151800
vt 0.400600 0.151800
vt 0.462400 0.151800
vt 0.462400 0.438300
vt 0.400600 0.151800
vt 0.400600 0.438300
vt 0.415000 0.618600
vt 0.420100 0.542400
vt 0.442600 0.542400
vt 0.447700 0.618600
vt 0.420100 0.542400
vt 0.442600 0.542400
vt 0.447700 0.618600
vt 0.415000 0.618600
vt 0.431300 0.618600
vt 0.460800 0.618400
vt 0.402200 0.618400
vt 0.407300 0.542200
vt 0.431500 0.542200
vt 0.455700 0.542200
vt 0.431500 0.542200
vt 0.455700 0.542200
vt 0.460800 0.618400
vt 0.407300 0.542200
vt 0.402200 0.618400
vt 0.442600 0.542400
vt 0.447700 0.618600
vt 0.415000 0.618600
vt 0.420100 0.542400
vt 4.836800 0.355300
vt 4.828000 0.247500
vt 5.033700 0.174600
vt 4.845600 0.463200
vt 5.062800 0.532200
vt 5.355200 0.171600
vt 5.384400 0.529200
vt 5.676700 0.168700
vt 5.705900 0.526300
vt 5.893900 0.237700
vt 5.911500 0.453400
vt 5.902700 0.345500
vt -4.224500 0.435100
vt -4.224500 0.501200
vt -6.252900 0.501200
vt -6.252900 0.428300
vt -7.443800 -0.294600
vt -2.463300 -0.294600
vt -2.463300 0.435100
vt -7.443800 0.428300
vt 5.790900 0.484200
vt 5.787300 0.484200
vt 5.787300 0.439200
vt 0.878200 0.000000
vt 0.878200 0.167900
vt -1.297000 0.167900
vt -1.297000 0.000000
vt -0.878200 0.167900
vt -0.878200 0.000000
vt 1.276600 0.000000
vt 1.276600 0.167900
vt 2.463300 0.000000
vt 7.443800 0.000000
vt 7.443800 0.167900
vt 2.463300 0.167900
vt 4.971000 0.491700
vt 4.948600 0.216700
vt 5.768500 0.209100
vt -6.252900 0.000000
vt -4.224500 0.000000
vt -4.224500 0.167900
vt -6.252900 0.167900
vt 1.276600 0.167900
vt 1.276600 0.000000
vt 1.494000 0.000000
vt 1.494000 0.167900
vt -7.443800 0.000000
vt -6.252900 0.000000
vt -6.252900 0.167900
vt -7.443800 0.167900
vt -4.224500 0.000000
vt -2.463300 0.000000
vt -2.463300 0.167900
vt -4.224500 0.167900
vt -1.297000 0.000000
vt -1.297000 0.167900
vt -1.494000 0.167900
vt -1.494000 0.000000
vn -0.0000 1.0000 -0.0000
vn 0.0000 -1.0000 0.0000
vn -0.0026 0.0000 -1.0000
vn -0.0025 -0.3080 -0.9514
vn 0.9514 -0.3080 -0.0025
vn 0.6710 -0.3080 -0.6745
vn -1.0000 0.0000 0.0026
vn 0.0026 0.0000 1.0000
vn 1.0000 0.0000 -0.0026
vn 0.6745 -0.3080 0.6710
vn -0.6710 -0.3080 0.6745
vn -0.6708 -0.3079 0.6747
vn -0.6712 -0.3079 0.6743
vn 0.6645 -0.0865 -0.7423
vn 0.0025 -0.3080 0.9514
vn -0.9514 -0.3080 0.0025
vn -0.6745 -0.3080 -0.6710
vn -0.0300 0.0000 -0.9995
vn 0.0300 0.0000 0.9995
vn -0.9995 0.0000 0.0300
vn 0.9995 0.0000 -0.0300
usemtl Material.037
s 1
f 1/1/1 2/2/1 3/3/1 4/4/1
f 4/4/1 3/3/1 5/5/1 6/6/1
f 7/7/1 6/6/1 5/5/1 8/8/1
f 9/9/1 8/8/1 5/5/1 10/10/1
f 10/10/1 5/5/1 11/11/1 12/12/1
f 13/13/1 12/12/1 11/11/1 14/14/1
f 14/14/1 11/11/1 2/2/1 15/15/1
f 15/15/1 2/2/1 1/1/1 16/16/1
f 17/17/2 18/18/2 19/19/2 20/20/2
f 21/21/2 17/17/2 20/20/2 22/22/2
f 23/23/2 21/21/2 22/22/2 18/18/2
f 18/18/2 22/22/2 24/24/2 19/19/2
f 25/25/1 26/26/1 27/27/1 28/28/1
f 28/28/1 27/27/1 29/29/1 30/30/1
f 30/30/1 29/29/1 31/31/1 32/32/1
f 32/32/1 31/31/1 33/33/1
f 34/34/1 35/35/1 36/36/1 37/37/1
f 38/38/1 37/37/1 36/36/1 39/39/1
f 40/40/1 39/39/1 36/36/1 41/41/1
f 41/41/1 36/36/1 42/42/1
f 40/40/1 41/41/1 43/43/1 44/44/1
f 45/45/1 44/44/1 43/43/1 46/46/1
f 37/37/1 45/45/1 46/46/1 47/47/1
f 34/34/1 37/37/1 47/47/1
f 24/48/3 3/49/3 2/50/3 19/51/3
f 37/52/3 18/53/3 17/54/3 45/55/3
f 1/56/4 26/57/4 25/58/4 16/59/4
f 16/59/4 25/58/4 15/60/4
f 13/61/5 14/62/5 28/63/5 12/64/5
f 12/64/5 28/63/5 30/65/5
f 14/66/6 15/67/6 25/68/6 28/69/6
f 24/70/7 22/71/7 5/72/7 3/73/7
f 5/74/8 22/75/8 20/76/8 11/77/8
f 20/78/9 19/79/9 2/80/9 11/81/9
f 37/82/7 38/83/7 23/84/7 18/85/7
f 23/86/8 38/87/8 39/88/8 21/89/8
f 21/89/8 39/88/8 40/90/8
f 44/91/9 45/92/9 17/93/9 40/94/9
f 40/94/9 17/93/9 21/95/9
f 32/96/10 10/97/10 12/98/10 30/99/10
f 7/100/11 8/101/11 33/102/12 29/103/13
f 29/103/13 33/102/12 31/104/14
f 32/105/15 33/106/15 8/107/15 9/108/15
f 32/105/15 9/108/15 10/109/15
f 6/110/16 7/111/16 29/112/16 4/113/16
f 4/113/16 29/112/16 27/114/16
f 4/115/17 27/116/17 26/117/17 1/118/17
f 16/119/1 1/120/1 4/121/1 15/122/1
f 14/123/1 15/122/1 4/121/1 6/124/1
f 13/125/1 14/123/1 6/124/1 7/126/1
f 12/127/1 13/125/1 7/126/1 8/128/1
f 10/129/1 12/127/1 8/128/1 9/130/1
f 48/131/2 49/132/2 50/133/2 51/134/2
f 48/131/2 51/134/2 52/135/2 53/136/2
f 48/131/2 53/136/2 54/137/2
f 52/135/2 51/134/2 55/138/2
f 40/139/1 44/140/1 39/141/1
f 53/142/18 35/143/18 34/144/18 54/145/18
f 36/146/19 52/147/19 55/148/19 42/149/19
f 53/150/20 52/151/20 36/152/20 35/153/20
f 45/154/1 37/155/1 38/156/1 44/140/1
f 44/140/1 38/156/1 39/141/1
f 50/157/21 49/158/21 46/159/21 43/160/21
f 41/161/19 51/162/19 50/163/19 43/164/19
f 55/165/21 51/166/21 41/167/21 42/168/21
f 48/169/21 54/170/21 34/171/21 47/172/21
f 48/173/18 47/174/18 46/175/18 49/176/18
